<svg xmlns="http://www.w3.org/2000/svg" width="360" height="456" viewBox="0 0 360 456">
<rect width="100%" height="100%" fill="#FAF9F6"/>
<text x="4" y="26" font-family="IBM Plex Sans, sans-serif" font-weight="600" font-size="16" fill="#2B3D18">Top model features</text>
<text x="4" y="48" font-family="IBM Plex Mono, monospace" font-size="14" fill="#16181C">log_impressions_90d</text>
<text x="356" y="48" text-anchor="end" font-family="IBM Plex Mono, monospace" font-weight="500" font-size="14" fill="#16181C">0.848</text>
<rect x="4" y="55" width="352.0" height="9" fill="#2B3D18" rx="2"/>
<text x="4" y="82" font-family="IBM Plex Mono, monospace" font-size="14" fill="#16181C">log_clicks_90d</text>
<text x="356" y="82" text-anchor="end" font-family="IBM Plex Mono, monospace" font-weight="500" font-size="14" fill="#16181C">0.588</text>
<rect x="4" y="89" width="244.1" height="9" fill="#2B3D18" rx="2"/>
<text x="4" y="116" font-family="IBM Plex Mono, monospace" font-size="14" fill="#16181C">days_with_impressions</text>
<text x="356" y="116" text-anchor="end" font-family="IBM Plex Mono, monospace" font-weight="500" font-size="14" fill="#16181C">0.43</text>
<rect x="4" y="123" width="178.5" height="9" fill="#2B3D18" rx="2"/>
<text x="4" y="150" font-family="IBM Plex Mono, monospace" font-size="14" fill="#16181C">word_count</text>
<text x="356" y="150" text-anchor="end" font-family="IBM Plex Mono, monospace" font-weight="500" font-size="14" fill="#16181C">0.412</text>
<rect x="4" y="157" width="171.0" height="9" fill="#2B3D18" rx="2"/>
<text x="4" y="184" font-family="IBM Plex Mono, monospace" font-size="14" fill="#16181C">avg_position</text>
<text x="356" y="184" text-anchor="end" font-family="IBM Plex Mono, monospace" font-weight="500" font-size="14" fill="#16181C">0.393</text>
<rect x="4" y="191" width="163.1" height="9" fill="#2B3D18" rx="2"/>
<text x="4" y="218" font-family="IBM Plex Mono, monospace" font-size="14" fill="#16181C">days_since_last_update</text>
<text x="356" y="218" text-anchor="end" font-family="IBM Plex Mono, monospace" font-weight="500" font-size="14" fill="#16181C">0.24</text>
<rect x="4" y="225" width="99.6" height="9" fill="#2B3D18" rx="2"/>
<text x="4" y="252" font-family="IBM Plex Mono, monospace" font-size="14" fill="#16181C">word_count_tier_1000-2000</text>
<text x="356" y="252" text-anchor="end" font-family="IBM Plex Mono, monospace" font-weight="500" font-size="14" fill="#16181C">0.214</text>
<rect x="4" y="259" width="88.8" height="9" fill="#2B3D18" rx="2"/>
<text x="4" y="286" font-family="IBM Plex Mono, monospace" font-size="14" fill="#16181C">char_count</text>
<text x="356" y="286" text-anchor="end" font-family="IBM Plex Mono, monospace" font-weight="500" font-size="14" fill="#16181C">0.15</text>
<rect x="4" y="293" width="62.3" height="9" fill="#2B3D18" rx="2"/>
<text x="4" y="320" font-family="IBM Plex Mono, monospace" font-size="14" fill="#16181C">days_with_sessions</text>
<text x="356" y="320" text-anchor="end" font-family="IBM Plex Mono, monospace" font-weight="500" font-size="14" fill="#16181C">0.144</text>
<rect x="4" y="327" width="59.8" height="9" fill="#2B3D18" rx="2"/>
<text x="4" y="354" font-family="IBM Plex Mono, monospace" font-size="14" fill="#16181C">word_count_tier_2000-3500</text>
<text x="356" y="354" text-anchor="end" font-family="IBM Plex Mono, monospace" font-weight="500" font-size="14" fill="#16181C">0.142</text>
<rect x="4" y="361" width="58.9" height="9" fill="#2B3D18" rx="2"/>
<text x="4" y="388" font-family="IBM Plex Mono, monospace" font-size="14" fill="#16181C">age_tier_91-180</text>
<text x="356" y="388" text-anchor="end" font-family="IBM Plex Mono, monospace" font-weight="500" font-size="14" fill="#16181C">0.117</text>
<rect x="4" y="395" width="48.6" height="9" fill="#2B3D18" rx="2"/>
<text x="4" y="422" font-family="IBM Plex Mono, monospace" font-size="14" fill="#16181C">scroll_rate</text>
<text x="356" y="422" text-anchor="end" font-family="IBM Plex Mono, monospace" font-weight="500" font-size="14" fill="#16181C">0.116</text>
<rect x="4" y="429" width="48.2" height="9" fill="#2B3D18" rx="2"/>
</svg>